# xmcd
#
# Track frame offsets:
#	182
#	12085
#	23692
#	35810
#	46457
#	58442
#	70575
#	81592
#	93295
#	106285
#	118270
#	129440
#	139860
#	152325
#	163472
#	175100
#	187915
#	199305
#	210652
#	223072
#
# Disc length: 3152 seconds
#
# Revision: 3
# Processed by: cddbd v1.5.2PL0 Copyright (c) Steve Scherf et al.
# Submitted via: audiograbber 1.83.01
#
DISCID=240c4e14
DTITLE=Tommy Edwards - The Complete Hits Of 
DYEAR=1900
DGENRE=Oldies
TTITLE0=It's All In The Game
TTITLE1=Please Love Me Forever
TTITLE2=Love Is All We Need
TTITLE3=Please Mr. Sun
TTITLE4=The Morning Side Of The Mountain
TTITLE5=My Melancholy Baby
TTITLE6=IT's Only The Good Times
TTITLE7=I've Been There
TTITLE8=Honestly And Truly
TTITLE9=(New In) The Ways Of Love
TTITLE10=Don't Fence Me In
TTITLE11=I Really Don't Want To Know
TTITLE12=Vaya Con Dios
TTITLE13=Take These Chains From My Heart
TTITLE14=You Win Again
TTITLE15=Mr. Music Man
TTITLE16=It's Not The End Of Everything
TTITLE17=Blue Heartaches
TTITLE18=Secret Love
TTITLE19=It's All In The Game  (Mono)
EXTD=
EXTT0=
EXTT1=
EXTT2=
EXTT3=
EXTT4=
EXTT5=
EXTT6=
EXTT7=
EXTT8=
EXTT9=
EXTT10=
EXTT11=
EXTT12=
EXTT13=
EXTT14=
EXTT15=
EXTT16=
EXTT17=
EXTT18=
EXTT19=
PLAYORDER=
